# xmcd
#
# Track frame offsets:
#	150
#	11510
#	32562
#	44016
#	60002
#	71000
#	79980
#	93403
#	107598
#	130433
#	140130
#	149584
#
# Disc length: 2177 seconds
#
# Revision: 1
# Processed by: cddbd v1.4PL0 Copyright (c) Steve Scherf et al.
# Submitted via: EasyCDDAExtractor 6.0.0.1
#
DISCID=ab087f0c
DTITLE=Johnny Cash - Christmas With Johnny Cash
DYEAR=2003
DGENRE=Country
TTITLE0=I Heard The Bells On Christmas Day
TTITLE1=Christmas Guest, The
TTITLE2=Hark, The Herald Angels Sing
TTITLE3=Gifts They Gave, The
TTITLE4=Blue Christmas
TTITLE5=Merry Christmas Mary
TTITLE6=Oh Come All Ye Faithful
TTITLE7=Away In A Manger
TTITLE8=Christmas Spirit, The
TTITLE9=Joy To The World
TTITLE10=Silent Night
TTITLE11=Christmas As I Knew It - (bonus track, previously unreleased)
EXTD=
EXTT0=
EXTT1=
EXTT2=
EXTT3=
EXTT4=
EXTT5=
EXTT6=
EXTT7=
EXTT8=
EXTT9=
EXTT10=
EXTT11=
PLAYORDER=
